<?xml version="1.0" standalone="no"?>
<!DOCTYPE svg PUBLIC "-//W3C//DTD SVG 20010904//EN"
 "http://www.w3.org/TR/2001/REC-SVG-20010904/DTD/svg10.dtd">
<svg version="1.0" xmlns="http://www.w3.org/2000/svg"
 width="701.000000pt" height="490.000000pt" viewBox="0 0 701.000000 490.000000"
 preserveAspectRatio="xMidYMid meet">

<g transform="translate(0.000000,490.000000) scale(0.100000,-0.100000)"
fill="#ffffff" stroke="none">
<path d="M401 4890 c-93 -22 -207 -95 -271 -173 -84 -104 -122 -212 -122 -347
0 -143 41 -250 139 -358 187 -206 1230 -1308 1280 -1352 118 -104 263 -172
425 -200 44 -7 763 -10 2408 -8 l2345 3 66 26 c146 57 251 163 310 314 33 87
34 261 1 357 -46 132 -151 247 -277 301 -113 49 4 47 -2385 47 l-2235 0 -400
426 c-912 972 -811 870 -910 919 -38 18 -90 39 -115 44 -52 12 -209 13 -259 1z"/>
<path d="M3022 1993 c80 -60 238 -175 350 -258 l204 -150 -186 -135 c-102 -75
-190 -139 -197 -143 -7 -4 -43 8 -81 27 -85 44 -187 66 -301 66 -271 0 -512
-152 -632 -396 -197 -403 44 -897 482 -989 322 -68 647 94 784 390 51 110 69
207 62 345 l-5 117 216 159 c119 88 239 176 267 196 l51 37 264 -195 265 -195
-3 -122 c-5 -148 13 -236 68 -352 117 -243 359 -395 630 -395 387 0 700 313
700 700 0 387 -313 700 -701 700 -114 0 -217 -22 -302 -65 -38 -19 -74 -32
-80 -28 -7 4 -95 68 -197 143 l-186 135 347 255 346 255 -455 3 -454 2 -77
-55 c-42 -31 -96 -71 -121 -89 l-45 -34 -120 89 -120 89 -459 0 -460 0 146
-107z m-136 -1144 c120 -57 122 -234 4 -296 -55 -29 -105 -29 -160 0 -51 27
-90 90 -90 147 0 57 39 120 90 147 54 28 101 29 156 2z m2450 0 c120 -57 122
-234 4 -296 -55 -29 -105 -29 -160 0 -51 27 -90 90 -90 147 0 57 39 120 90
147 54 28 101 29 156 2z"/>
</g>
</svg>
