<?xml version="1.0" encoding="UTF-8"?>
<!DOCTYPE svg PUBLIC "-//W3C//DTD SVG 1.1//EN" "http://www.w3.org/Graphics/SVG/1.1/DTD/svg11.dtd">
<svg xmlns="http://www.w3.org/2000/svg" version="1.1" width="128px" height="128px" style="shape-rendering:geometricPrecision; text-rendering:geometricPrecision; image-rendering:optimizeQuality; fill-rule:evenodd; clip-rule:evenodd" xmlns:xlink="http://www.w3.org/1999/xlink">
<g><path style="opacity:1" fill="#fff" d="M 37.5,-0.5 C 42.1667,-0.5 46.8333,-0.5 51.5,-0.5C 51.5,20.5 51.5,41.5 51.5,62.5C 46.8333,62.5 42.1667,62.5 37.5,62.5C 37.5,41.5 37.5,20.5 37.5,-0.5 Z"/></g>
<g><path style="opacity:1" fill="#fff" d="M 75.5,-0.5 C 80.1667,-0.5 84.8333,-0.5 89.5,-0.5C 89.5,7.83333 89.5,16.1667 89.5,24.5C 84.8333,24.5 80.1667,24.5 75.5,24.5C 75.5,16.1667 75.5,7.83333 75.5,-0.5 Z"/></g>
<g><path style="opacity:1" fill="#fff" d="M -0.5,37.5 C 7.83333,37.5 16.1667,37.5 24.5,37.5C 24.5,42.1667 24.5,46.8333 24.5,51.5C 16.1667,51.5 7.83333,51.5 -0.5,51.5C -0.5,46.8333 -0.5,42.1667 -0.5,37.5 Z"/></g>
<g><path style="opacity:1" fill="#fff" d="M 127.5,37.5 C 127.5,42.1667 127.5,46.8333 127.5,51.5C 106.5,51.5 85.5,51.5 64.5,51.5C 64.5,46.8333 64.5,42.1667 64.5,37.5C 85.5,37.5 106.5,37.5 127.5,37.5 Z"/></g>
<g><path style="opacity:1" fill="#fff" d="M 89.5,127.5 C 84.8333,127.5 80.1667,127.5 75.5,127.5C 75.5,106.5 75.5,85.5 75.5,64.5C 80.1667,64.5 84.8333,64.5 89.5,64.5C 89.5,85.5 89.5,106.5 89.5,127.5 Z"/></g>
<g><path style="opacity:1" fill="#fff" d="M -0.5,75.5 C 20.5,75.5 41.5,75.5 62.5,75.5C 62.5,79.8333 62.5,84.1667 62.5,88.5C 41.5,88.5 20.5,88.5 -0.5,88.5C -0.5,84.1667 -0.5,79.8333 -0.5,75.5 Z"/></g>
<g><path style="opacity:1" fill="#fff" d="M 127.5,75.5 C 127.5,80.1667 127.5,84.8333 127.5,89.5C 119.167,89.5 110.833,89.5 102.5,89.5C 102.5,84.8333 102.5,80.1667 102.5,75.5C 110.833,75.5 119.167,75.5 127.5,75.5 Z"/></g>
<g><path style="opacity:1" fill="#fff" d="M 51.5,127.5 C 46.8333,127.5 42.1667,127.5 37.5,127.5C 37.5,119.167 37.5,110.833 37.5,102.5C 42.1667,102.5 46.8333,102.5 51.5,102.5C 51.5,110.833 51.5,119.167 51.5,127.5 Z"/></g>
</svg>
