<svg id="svg" version="1.1" xmlns="http://www.w3.org/2000/svg" xmlns:xlink="http://www.w3.org/1999/xlink" width="400" height="387.7502944640754" viewBox="0, 0, 400,387.7502944640754"><g id="svgg"><path id="path0" d="M72.842 247.029 C 72.255 247.118,71.775 247.326,71.775 247.491 C 71.775 247.656,71.096 247.995,70.267 248.244 C 67.706 249.011,65.450 251.676,64.573 254.971 C 62.590 262.423,64.363 270.304,68.818 273.830 C 70.763 275.370,77.133 276.238,82.373 275.677 L 84.966 275.399 84.966 268.446 L 84.966 261.494 82.444 261.494 L 79.922 261.494 79.922 266.149 L 79.922 270.805 77.886 270.803 C 74.187 270.799,70.611 268.807,70.611 266.750 C 70.611 266.455,70.393 266.141,70.126 266.052 C 69.775 265.935,69.649 264.719,69.669 261.655 C 69.701 256.815,70.699 254.305,73.075 253.088 C 73.747 252.744,74.414 252.280,74.557 252.058 C 74.928 251.482,82.141 251.530,82.723 252.112 C 83.984 253.372,84.578 252.665,84.578 249.905 L 84.578 247.240 83.123 247.000 C 81.564 246.742,74.605 246.762,72.842 247.029 M167.992 247.004 C 167.346 247.216,166.562 247.547,164.406 248.513 C 162.850 249.211,160.621 251.475,160.621 252.358 C 160.621 252.652,160.432 252.956,160.202 253.033 C 158.006 253.765,158.345 268.063,160.615 270.501 C 161.040 270.957,161.482 271.605,161.598 271.940 C 162.533 274.656,171.675 276.674,178.177 275.600 L 179.631 275.359 179.631 268.426 L 179.631 261.494 177.110 261.494 L 174.588 261.494 174.588 266.149 L 174.588 270.805 172.548 270.805 C 168.841 270.805,166.614 269.637,165.618 267.171 C 165.348 266.502,164.969 265.847,164.776 265.715 C 164.583 265.583,164.423 263.837,164.420 261.836 C 164.409 254.567,167.258 251.578,174.127 251.652 C 175.973 251.672,177.540 251.876,177.793 252.129 C 178.856 253.192,179.243 252.597,179.243 249.903 L 179.243 247.236 178.031 246.993 C 176.625 246.712,168.853 246.720,167.992 247.004 M307.274 247.072 L 305.917 247.333 305.815 261.397 L 305.713 275.461 308.434 275.461 L 311.154 275.461 311.154 270.123 L 311.154 264.786 312.900 264.925 C 313.860 265.001,314.656 265.264,314.668 265.509 C 314.681 265.755,315.073 266.500,315.541 267.166 C 316.009 267.832,317.306 269.752,318.423 271.434 C 319.541 273.115,320.639 274.709,320.863 274.976 C 321.131 275.293,322.405 275.461,324.555 275.461 C 327.583 275.461,328.676 275.090,327.255 274.544 C 326.935 274.422,326.673 274.133,326.673 273.902 C 326.673 273.369,323.536 268.774,322.890 268.361 C 322.624 268.190,322.401 267.841,322.395 267.585 C 322.389 267.329,321.860 266.427,321.219 265.580 C 320.099 264.100,320.085 264.030,320.837 263.752 C 322.185 263.253,324.292 261.068,324.548 259.903 C 324.683 259.289,324.954 258.687,325.151 258.565 C 326.989 257.430,324.475 249.822,321.823 248.497 C 320.970 248.070,320.149 247.549,319.998 247.338 C 319.683 246.898,309.317 246.681,307.274 247.072 M2.199 247.397 C 2.056 247.540,1.940 253.912,1.940 261.558 L 1.940 275.461 4.850 275.461 L 7.759 275.461 7.759 269.641 L 7.759 263.822 13.191 263.822 L 18.623 263.822 18.623 269.641 L 18.623 275.461 21.532 275.461 L 24.442 275.461 24.442 261.300 L 24.442 247.139 21.532 247.139 L 18.623 247.139 18.623 252.764 L 18.623 258.390 13.191 258.390 L 7.759 258.390 7.759 252.764 L 7.759 247.139 5.108 247.139 C 3.650 247.139,2.341 247.255,2.199 247.397 M42.289 261.300 L 42.289 275.461 45.005 275.461 L 47.721 275.461 47.721 261.300 L 47.721 247.139 45.005 247.139 L 42.289 247.139 42.289 261.300 M109.078 248.400 C 108.864 249.093,108.572 250.240,108.430 250.948 C 108.288 251.655,107.939 252.682,107.655 253.229 C 107.371 253.777,106.837 255.467,106.469 256.986 C 106.100 258.505,105.678 259.835,105.530 259.942 C 105.382 260.048,104.858 261.794,104.365 263.822 C 103.871 265.849,103.335 267.596,103.174 267.704 C 103.012 267.811,102.527 269.208,102.097 270.807 C 101.667 272.406,101.195 274.108,101.048 274.588 C 100.789 275.439,100.854 275.461,103.699 275.461 L 106.615 275.461 107.098 273.424 C 107.364 272.304,107.705 271.300,107.857 271.193 C 108.008 271.086,108.295 270.301,108.493 269.447 L 108.854 267.895 113.389 267.786 L 117.923 267.677 118.187 268.730 C 118.333 269.309,118.685 270.231,118.971 270.779 C 119.257 271.327,119.493 271.950,119.495 272.163 C 119.498 272.376,119.682 273.206,119.904 274.006 L 120.308 275.461 123.200 275.461 C 126.408 275.461,126.575 275.284,125.535 272.998 C 125.230 272.325,124.607 270.378,124.151 268.671 C 123.696 266.964,123.094 265.044,122.813 264.403 C 122.533 263.763,122.083 262.279,121.813 261.106 C 121.544 259.932,121.206 258.885,121.062 258.778 C 120.919 258.671,120.392 257.013,119.892 255.092 C 119.392 253.172,118.863 251.426,118.717 251.212 C 118.572 250.999,118.228 249.995,117.954 248.982 L 117.455 247.139 113.462 247.139 L 109.469 247.139 109.078 248.400 M197.090 261.487 L 197.090 275.849 206.402 275.849 L 215.713 275.849 215.713 273.327 L 215.713 270.805 209.311 270.805 L 202.910 270.805 202.910 267.324 L 202.910 263.843 208.244 263.735 L 213.579 263.628 213.579 261.106 L 213.579 258.584 208.244 258.476 L 202.910 258.368 202.910 255.081 L 202.910 251.794 209.331 251.794 L 215.752 251.794 215.635 249.564 L 215.519 247.333 206.305 247.229 L 197.090 247.125 197.090 261.487 M231.620 261.300 L 231.620 275.461 234.142 275.461 L 236.663 275.461 236.663 266.316 C 236.663 256.547,236.730 256.290,238.413 259.573 C 238.791 260.309,239.226 260.999,239.381 261.106 C 239.536 261.212,240.059 262.085,240.543 263.046 C 241.027 264.006,241.535 264.879,241.672 264.985 C 241.808 265.092,242.352 266.009,242.880 267.022 C 243.408 268.036,243.971 268.865,244.131 268.865 C 244.292 268.865,244.423 269.054,244.423 269.284 C 244.423 269.515,244.992 270.606,245.688 271.709 C 246.384 272.812,247.145 274.064,247.378 274.491 C 247.735 275.144,248.270 275.285,250.768 275.380 L 253.734 275.493 253.734 261.316 L 253.734 247.139 251.212 247.139 L 248.691 247.139 248.691 256.473 C 248.691 261.607,248.560 265.724,248.400 265.622 C 248.240 265.521,247.760 264.769,247.334 263.951 C 246.907 263.133,246.335 262.228,246.062 261.940 C 245.788 261.652,245.305 260.866,244.987 260.194 C 244.668 259.522,243.809 258.012,243.077 256.838 C 242.345 255.664,241.365 254.006,240.898 253.152 C 240.432 252.299,239.924 251.513,239.769 251.406 C 239.614 251.300,239.180 250.601,238.805 249.855 C 237.550 247.360,237.181 247.139,234.275 247.139 L 231.620 247.139 231.620 261.300 M271.193 261.494 L 271.193 275.849 280.504 275.849 L 289.816 275.849 289.816 273.327 L 289.816 270.805 283.220 270.805 L 276.625 270.805 276.625 267.313 L 276.625 263.822 282.056 263.822 L 287.488 263.822 287.488 261.106 L 287.488 258.390 282.056 258.390 L 276.625 258.390 276.625 255.092 L 276.625 251.794 283.026 251.794 L 289.428 251.794 289.428 249.467 L 289.428 247.139 280.310 247.139 L 271.193 247.139 271.193 261.494 M347.624 247.721 C 347.624 248.041,347.476 248.303,347.296 248.303 C 347.115 248.303,346.573 249.961,346.092 251.988 C 345.610 254.016,345.091 255.674,344.939 255.674 C 344.786 255.674,344.352 256.989,343.973 258.597 C 343.594 260.204,343.045 261.999,342.752 262.585 C 342.460 263.171,341.939 264.866,341.594 266.351 C 341.250 267.837,340.822 269.229,340.645 269.444 C 340.312 269.847,339.088 274.254,339.088 275.049 C 339.088 275.354,339.975 275.459,341.901 275.381 L 344.714 275.267 345.553 272.551 C 346.015 271.057,346.500 269.350,346.631 268.756 L 346.868 267.678 351.587 267.786 L 356.305 267.895 356.952 270.460 C 358.188 275.365,358.272 275.461,361.347 275.461 L 364.018 275.461 363.758 273.836 C 363.615 272.943,363.250 271.677,362.947 271.024 C 362.644 270.370,362.033 268.438,361.591 266.731 C 361.149 265.024,360.636 263.353,360.452 263.017 C 360.268 262.681,359.742 261.023,359.283 259.331 C 358.823 257.640,358.289 255.907,358.094 255.480 C 357.900 255.053,357.456 253.657,357.108 252.376 C 356.760 251.096,356.195 249.394,355.854 248.594 L 355.234 247.139 351.429 247.139 C 348.305 247.139,347.624 247.243,347.624 247.721 M379.049 261.300 L 379.049 275.461 387.973 275.461 L 396.896 275.461 396.896 273.133 L 396.896 270.805 390.883 270.805 L 384.869 270.805 384.869 258.972 L 384.869 247.139 381.959 247.139 L 379.049 247.139 379.049 261.300 M317.500 251.988 C 317.820 252.308,318.206 252.570,318.358 252.570 C 319.012 252.570,319.666 254.051,319.677 255.559 C 319.703 258.948,318.509 259.926,313.967 260.238 L 311.154 260.432 311.154 255.919 L 311.154 251.406 314.036 251.406 C 316.081 251.406,317.088 251.576,317.500 251.988 M353.809 260.136 C 354.968 262.626,354.940 262.658,351.571 262.658 L 348.482 262.658 348.893 261.009 C 349.119 260.102,349.423 259.273,349.568 259.166 C 349.714 259.059,350.146 257.662,350.528 256.062 C 351.493 252.014,351.526 252.012,352.542 255.895 C 353.040 257.801,353.611 259.709,353.809 260.136 M114.434 255.868 C 114.599 256.081,115.046 257.565,115.428 259.166 C 115.810 260.766,116.314 262.204,116.548 262.361 C 116.782 262.517,115.522 262.648,113.747 262.652 C 110.852 262.657,110.541 262.588,110.726 261.979 C 110.839 261.605,111.115 260.465,111.338 259.445 C 111.562 258.424,111.914 257.289,112.120 256.923 C 112.326 256.556,112.698 255.470,112.948 254.510 L 113.402 252.764 113.768 254.122 C 113.969 254.869,114.269 255.655,114.434 255.868 M30.807 269.834 C 27.972 272.270,29.809 276.079,33.666 275.759 C 36.161 275.552,36.501 275.247,36.756 272.991 C 37.144 269.545,33.435 267.576,30.807 269.834 M55.051 269.122 C 53.271 269.598,52.781 273.908,54.361 275.187 C 55.366 276.001,58.986 275.990,59.805 275.170 C 62.455 272.521,58.961 268.076,55.051 269.122 M92.072 269.256 C 90.283 269.977,89.721 273.620,91.174 275.073 C 93.979 277.878,99.328 273.819,97.084 270.589 C 96.057 269.109,93.876 268.529,92.072 269.256 M131.523 269.133 C 130.716 269.474,129.998 270.480,129.983 271.290 C 129.976 271.663,129.796 271.969,129.583 271.969 C 129.370 271.969,129.195 272.231,129.195 272.551 C 129.195 272.871,129.370 273.133,129.583 273.133 C 129.796 273.133,129.971 273.455,129.971 273.849 C 129.971 275.938,134.222 276.676,136.002 274.896 C 138.632 272.266,135.042 267.646,131.523 269.133 M338.813 282.735 C 338.676 283.109,338.444 283.501,338.298 283.608 C 338.153 283.715,337.202 285.373,336.185 287.294 C 335.168 289.214,334.096 291.130,333.803 291.551 C 332.664 293.183,332.984 293.307,338.330 293.307 L 343.392 293.307 344.053 292.146 C 344.416 291.507,344.841 290.983,344.997 290.982 C 345.153 290.981,345.636 290.281,346.072 289.428 C 346.507 288.574,347.004 287.876,347.175 287.876 C 347.346 287.876,347.878 287.090,348.358 286.130 C 348.838 285.170,349.364 284.384,349.528 284.384 C 349.941 284.384,350.730 282.576,350.443 282.289 C 349.797 281.643,339.064 282.055,338.813 282.735 M16.489 295.535 C 15.422 295.616,14.383 295.846,14.180 296.047 C 13.978 296.247,13.504 296.411,13.127 296.411 C 12.070 296.411,8.857 297.586,8.248 298.195 C 7.949 298.494,7.543 298.739,7.346 298.739 C 6.567 298.739,3.606 302.158,2.608 304.209 C 1.017 307.482,0.769 315.861,2.231 316.951 C 2.391 317.070,2.862 317.836,3.279 318.654 C 3.695 319.471,4.568 320.563,5.218 321.081 C 5.869 321.598,6.677 322.281,7.013 322.598 C 7.349 322.915,8.178 323.368,8.856 323.604 C 9.533 323.840,10.087 324.172,10.087 324.341 C 10.087 324.510,11.528 325.028,13.288 325.492 C 15.048 325.956,17.013 326.566,17.653 326.849 C 18.293 327.132,19.253 327.495,19.787 327.656 C 25.239 329.303,24.610 337.148,19.026 337.148 C 18.591 337.148,18.235 337.323,18.235 337.536 C 18.235 337.986,12.310 338.077,11.867 337.634 C 11.707 337.475,10.238 337.138,8.601 336.885 C 6.965 336.632,4.971 336.303,4.171 336.154 L 2.716 335.883 2.716 340.563 C 2.716 345.748,2.513 345.376,5.626 345.908 C 6.479 346.054,7.423 346.368,7.722 346.607 C 8.533 347.254,22.577 347.207,22.793 346.557 C 22.882 346.290,23.213 346.072,23.529 346.072 C 24.667 346.072,28.006 344.785,28.203 344.270 C 28.314 343.981,28.568 343.744,28.767 343.744 C 30.536 343.744,33.899 339.054,34.553 335.677 C 35.721 329.639,34.500 324.657,31.038 321.341 C 29.313 319.688,28.844 319.302,28.564 319.302 C 28.413 319.302,27.190 318.787,25.845 318.159 C 24.500 317.530,22.544 316.814,21.496 316.568 C 20.449 316.322,19.069 315.890,18.429 315.607 C 17.789 315.325,16.802 314.978,16.236 314.837 C 11.187 313.579,11.607 307.198,16.835 305.734 C 18.601 305.240,27.679 305.379,31.135 305.954 L 32.590 306.195 32.590 301.529 L 32.590 296.862 30.747 296.411 C 26.579 295.392,22.038 295.113,16.489 295.535 M259.007 295.967 C 258.894 296.149,257.745 296.409,256.452 296.544 C 255.160 296.679,253.670 296.898,253.142 297.030 L 252.182 297.271 252.182 322.060 L 252.182 346.848 257.808 346.848 L 263.434 346.848 263.434 337.536 L 263.434 328.225 265.955 328.225 C 267.411 328.225,268.477 328.392,268.477 328.621 C 268.477 328.838,268.957 329.739,269.544 330.623 C 270.131 331.507,270.936 332.769,271.334 333.428 C 271.731 334.087,272.177 334.714,272.324 334.821 C 272.471 334.927,273.014 335.713,273.529 336.566 C 274.044 337.420,274.777 338.457,275.157 338.870 C 275.538 339.284,275.849 339.819,275.849 340.058 C 275.849 340.298,276.163 340.832,276.547 341.246 C 276.931 341.660,277.586 342.598,278.002 343.331 C 278.418 344.063,279.064 344.980,279.437 345.367 C 279.811 345.755,280.116 346.246,280.116 346.460 C 280.116 346.702,282.380 346.848,286.130 346.848 C 292.971 346.848,293.063 346.793,290.991 343.938 C 290.372 343.084,289.474 341.644,288.996 340.737 C 288.517 339.830,288.020 339.088,287.891 339.088 C 287.761 339.088,287.323 338.521,286.916 337.827 C 286.510 337.134,285.374 335.432,284.393 334.045 C 283.411 332.658,282.367 331.043,282.073 330.456 C 281.778 329.869,281.410 329.389,281.254 329.389 C 281.098 329.389,280.602 328.682,280.152 327.819 L 279.334 326.248 280.786 325.642 C 282.826 324.789,286.451 320.890,287.112 318.837 C 287.407 317.919,287.831 317.043,288.054 316.891 C 288.625 316.499,288.587 307.551,288.011 306.849 C 287.765 306.550,287.366 305.564,287.124 304.658 C 286.632 302.821,283.275 299.055,281.675 298.547 C 281.158 298.383,280.523 298.037,280.264 297.778 C 280.005 297.519,278.687 297.093,277.336 296.831 C 275.984 296.569,274.576 296.193,274.205 295.995 C 273.359 295.543,259.285 295.517,259.007 295.967 M49.540 296.695 C 49.443 296.859,49.236 297.604,49.079 298.351 C 48.923 299.098,48.658 299.884,48.491 300.097 C 48.324 300.310,47.787 302.144,47.298 304.171 C 46.809 306.198,46.294 307.944,46.155 308.050 C 46.016 308.157,45.501 309.903,45.011 311.930 C 44.521 313.957,43.983 315.794,43.814 316.011 C 43.645 316.229,43.217 317.625,42.863 319.115 C 42.508 320.605,41.983 322.347,41.695 322.987 C 41.408 323.628,40.861 325.461,40.481 327.061 C 40.101 328.661,39.681 330.058,39.548 330.165 C 39.415 330.272,38.906 332.017,38.416 334.045 C 37.926 336.072,37.400 337.905,37.246 338.118 C 37.093 338.332,36.663 339.728,36.291 341.222 C 35.919 342.716,35.434 344.319,35.214 344.785 C 34.336 346.643,34.863 346.848,40.531 346.848 C 44.939 346.848,45.781 346.754,45.781 346.266 C 45.781 345.946,45.931 345.684,46.114 345.684 C 46.297 345.684,46.854 343.851,47.351 341.610 C 47.848 339.370,48.374 337.536,48.519 337.536 C 48.665 337.536,48.990 336.489,49.242 335.209 L 49.700 332.881 57.539 332.881 L 65.378 332.881 65.847 333.948 C 66.106 334.534,66.688 336.586,67.142 338.506 C 67.596 340.427,68.102 342.173,68.268 342.386 C 68.434 342.599,68.784 343.691,69.047 344.811 L 69.525 346.848 75.111 346.848 C 78.184 346.848,80.698 346.728,80.698 346.582 C 80.698 345.944,79.412 341.186,79.144 340.834 C 78.982 340.621,78.466 338.877,77.998 336.958 C 77.530 335.040,77.009 333.294,76.842 333.078 C 76.674 332.863,76.227 331.377,75.849 329.777 C 75.470 328.177,75.029 326.693,74.869 326.479 C 74.708 326.266,74.189 324.529,73.714 322.620 C 73.239 320.712,72.695 318.878,72.506 318.547 C 72.316 318.215,71.738 316.372,71.222 314.452 C 69.635 308.546,68.646 305.176,68.261 304.365 C 68.059 303.938,67.496 302.017,67.010 300.097 L 66.128 296.605 57.922 296.501 C 53.409 296.443,49.637 296.530,49.540 296.695 M84.190 321.629 L 84.190 346.848 89.234 346.848 L 94.277 346.848 94.277 330.941 C 94.277 322.192,94.408 315.036,94.568 315.038 C 94.728 315.040,95.204 315.825,95.625 316.784 C 96.047 317.742,96.499 318.526,96.631 318.526 C 96.763 318.526,97.275 319.311,97.769 320.272 C 98.263 321.232,98.795 322.017,98.952 322.017 C 99.109 322.017,99.336 322.410,99.458 322.890 C 99.579 323.371,100.384 324.847,101.246 326.171 C 102.108 327.496,102.813 328.762,102.813 328.984 C 102.813 329.207,102.967 329.389,103.157 329.389 C 103.346 329.389,103.801 330.044,104.169 330.844 C 104.537 331.644,105.037 332.473,105.281 332.687 C 105.524 332.900,106.129 333.860,106.626 334.821 C 107.606 336.715,109.129 339.324,109.796 340.252 C 110.343 341.012,111.874 343.559,112.888 345.393 L 113.692 346.848 119.310 346.848 L 124.927 346.848 124.927 321.629 L 124.927 296.411 119.496 296.411 L 114.064 296.411 114.055 312.027 L 114.046 327.643 112.905 325.703 C 112.277 324.636,111.501 323.213,111.179 322.541 C 110.857 321.869,110.371 321.083,110.097 320.795 C 109.824 320.507,109.252 319.578,108.825 318.730 C 108.399 317.883,107.745 316.846,107.371 316.426 C 106.998 316.007,106.693 315.510,106.693 315.322 C 106.693 315.134,106.169 314.219,105.529 313.288 C 104.888 312.358,104.365 311.410,104.365 311.181 C 104.365 310.953,104.059 310.449,103.686 310.062 C 103.312 309.675,102.658 308.671,102.231 307.831 C 101.804 306.992,101.149 305.966,100.776 305.552 C 100.403 305.139,100.094 304.615,100.090 304.389 C 100.086 304.162,99.606 303.247,99.023 302.356 C 98.440 301.464,97.373 299.762,96.653 298.573 L 95.342 296.411 89.766 296.411 L 84.190 296.411 84.190 321.629 M147.912 321.532 L 148.012 346.654 153.249 346.654 L 158.487 346.654 158.687 330.747 C 158.798 321.998,158.929 315.067,158.978 315.344 C 159.028 315.621,159.433 316.581,159.879 317.478 C 160.324 318.374,161.022 320.049,161.429 321.199 C 161.836 322.350,162.321 323.484,162.507 323.721 C 162.693 323.958,163.231 325.197,163.702 326.474 C 164.173 327.752,164.690 328.974,164.851 329.190 C 165.011 329.406,165.463 330.456,165.854 331.523 C 166.246 332.590,166.780 333.812,167.041 334.239 C 167.302 334.665,167.812 335.931,168.173 337.051 L 168.831 339.088 173.763 339.088 L 178.695 339.088 179.444 336.857 C 179.855 335.630,180.415 334.396,180.688 334.114 C 180.960 333.832,181.183 333.356,181.183 333.057 C 181.183 332.757,181.680 331.417,182.286 330.078 C 182.893 328.739,183.630 326.814,183.923 325.800 C 184.216 324.787,184.579 323.957,184.728 323.957 C 184.878 323.957,185.389 322.779,185.865 321.339 C 186.341 319.898,186.853 318.632,187.003 318.526 C 187.154 318.419,187.586 317.371,187.963 316.198 C 188.341 315.024,188.803 313.898,188.990 313.695 C 189.186 313.484,189.331 320.458,189.331 330.087 L 189.331 346.848 194.374 346.848 L 199.418 346.848 199.418 321.629 L 199.418 296.411 192.643 296.411 L 185.869 296.411 185.455 297.947 C 185.228 298.791,184.905 299.567,184.737 299.670 C 184.570 299.774,184.013 301.134,183.500 302.694 C 182.988 304.253,182.457 305.616,182.321 305.723 C 182.186 305.829,181.673 307.139,181.183 308.632 C 180.693 310.126,180.169 311.435,180.019 311.542 C 179.869 311.649,179.432 312.696,179.049 313.870 C 178.666 315.044,178.230 316.091,178.080 316.198 C 177.929 316.305,177.496 317.352,177.117 318.526 C 176.738 319.699,176.036 321.532,175.557 322.599 C 175.078 323.666,174.582 324.845,174.455 325.218 C 174.035 326.454,173.576 325.928,172.675 323.181 C 172.185 321.688,171.673 320.465,171.537 320.464 C 171.401 320.464,170.863 319.154,170.341 317.555 C 169.820 315.955,169.288 314.646,169.161 314.646 C 169.033 314.646,168.594 313.642,168.184 312.415 C 167.775 311.188,167.328 310.097,167.190 309.990 C 167.053 309.884,166.720 309.098,166.450 308.244 C 166.181 307.391,165.581 305.907,165.117 304.947 C 164.654 303.986,163.940 302.197,163.531 300.970 C 163.123 299.743,162.663 298.739,162.511 298.739 C 162.359 298.739,162.119 298.215,161.979 297.575 L 161.723 296.411 154.768 296.411 L 147.812 296.411 147.912 321.532 M217.809 297.090 C 217.579 297.464,216.986 299.428,216.491 301.455 C 215.997 303.482,215.472 305.228,215.325 305.335 C 215.178 305.441,214.653 307.187,214.159 309.214 C 213.664 311.242,213.108 313.162,212.924 313.482 C 212.740 313.802,212.256 315.286,211.849 316.780 C 209.595 325.053,208.946 327.274,208.732 327.449 C 208.602 327.556,208.070 329.389,207.550 331.523 C 207.030 333.657,206.481 335.494,206.330 335.606 C 206.179 335.718,205.864 336.679,205.630 337.740 C 205.396 338.802,204.775 340.922,204.251 342.451 C 202.646 347.135,202.384 346.887,208.802 346.761 L 214.307 346.654 214.628 345.296 C 214.805 344.549,215.100 343.668,215.285 343.338 C 215.469 343.009,216.019 341.001,216.506 338.877 C 216.993 336.752,217.538 334.956,217.716 334.885 C 217.895 334.814,218.041 334.334,218.041 333.818 L 218.041 332.881 225.976 332.881 L 233.911 332.881 234.315 334.336 C 234.537 335.136,234.720 336.009,234.721 336.275 C 234.723 336.542,234.855 336.761,235.015 336.761 C 235.175 336.761,235.728 338.602,236.244 340.852 C 236.760 343.102,237.327 345.033,237.505 345.142 C 237.682 345.252,237.827 345.680,237.827 346.095 C 237.827 346.805,238.143 346.848,243.453 346.848 C 249.687 346.848,249.920 346.723,248.553 344.104 C 248.266 343.554,247.719 341.809,247.337 340.224 C 246.955 338.639,246.428 336.906,246.166 336.372 C 245.904 335.839,245.395 334.061,245.035 332.421 C 244.676 330.781,244.257 329.385,244.104 329.317 C 243.952 329.250,243.413 327.449,242.907 325.315 C 242.400 323.181,241.863 321.348,241.712 321.242 C 241.561 321.135,241.120 319.738,240.733 318.138 C 240.346 316.537,239.807 314.694,239.536 314.041 C 239.264 313.388,238.764 311.654,238.424 310.188 C 238.084 308.722,237.661 307.336,237.483 307.107 C 237.305 306.879,236.759 305.034,236.269 303.007 C 235.779 300.980,235.253 299.234,235.100 299.127 C 234.946 299.020,234.698 298.366,234.547 297.672 L 234.274 296.411 226.251 296.411 C 219.027 296.411,218.186 296.479,217.809 297.090 M288.652 301.261 L 288.652 306.111 295.829 306.111 L 303.007 306.111 303.013 325.994 C 303.016 336.930,303.160 346.101,303.333 346.374 C 303.571 346.748,305.028 346.843,309.244 346.762 L 314.840 346.654 314.940 326.382 L 315.041 306.111 322.215 306.111 L 329.389 306.111 329.389 301.261 L 329.389 296.411 309.020 296.411 L 288.652 296.411 288.652 301.261 M332.881 321.629 L 332.881 346.848 338.506 346.848 L 344.132 346.848 344.132 321.629 L 344.132 296.411 338.506 296.411 L 332.881 296.411 332.881 321.629 M351.210 321.532 L 351.309 346.654 356.644 346.762 L 361.979 346.870 361.979 331.093 L 361.979 315.317 362.755 316.304 C 363.181 316.846,363.531 317.481,363.531 317.714 C 363.531 317.947,363.836 318.448,364.210 318.828 C 364.583 319.208,365.284 320.324,365.767 321.308 C 366.251 322.291,366.905 323.311,367.222 323.574 C 367.539 323.837,367.798 324.234,367.798 324.456 C 367.798 324.678,368.366 325.741,369.059 326.818 C 370.749 329.443,370.923 329.735,372.195 332.102 C 372.800 333.227,373.458 334.342,373.658 334.581 C 374.459 335.536,377.040 339.808,377.287 340.586 C 377.431 341.043,377.683 341.416,377.845 341.416 C 378.008 341.416,378.550 342.289,379.049 343.356 C 379.549 344.423,380.091 345.296,380.254 345.296 C 380.416 345.296,380.660 345.645,380.795 346.072 C 381.027 346.801,381.382 346.848,386.641 346.848 L 392.241 346.848 392.241 321.629 L 392.241 296.411 386.809 296.411 L 381.377 296.411 381.366 311.833 C 381.356 323.687,381.250 327.076,380.906 326.479 C 380.659 326.052,380.228 325.472,379.948 325.191 C 379.667 324.909,379.437 324.497,379.437 324.277 C 379.437 324.056,378.914 323.100,378.274 322.151 C 377.633 321.203,377.110 320.261,377.110 320.058 C 377.110 319.855,376.804 319.379,376.431 318.999 C 376.057 318.619,375.356 317.504,374.873 316.520 C 374.389 315.536,373.735 314.516,373.418 314.253 C 373.101 313.990,372.842 313.593,372.842 313.372 C 372.842 313.150,372.274 312.087,371.581 311.010 C 369.891 308.385,369.717 308.092,368.445 305.725 C 367.840 304.601,367.182 303.485,366.982 303.247 C 366.182 302.291,363.601 298.019,363.354 297.241 C 363.100 296.441,362.879 296.411,357.100 296.411 L 351.110 296.411 351.210 321.532 M271.406 304.491 C 271.609 304.668,272.531 305.049,273.455 305.340 C 277.512 306.614,279.034 312.636,276.224 316.297 C 274.461 318.593,273.410 318.964,267.992 319.199 L 263.434 319.397 263.434 312.264 C 263.434 305.253,263.449 305.123,264.306 304.698 C 265.336 304.189,270.873 304.027,271.406 304.491 M227.343 309.602 C 227.812 311.629,228.334 313.463,228.504 313.676 C 228.673 313.889,229.196 315.765,229.665 317.843 C 230.134 319.921,230.678 321.721,230.875 321.843 C 231.071 321.964,231.232 322.402,231.232 322.816 C 231.232 323.524,230.921 323.569,226.048 323.569 L 220.864 323.569 221.275 321.726 C 221.500 320.713,221.802 319.796,221.946 319.690 C 222.089 319.583,222.594 317.837,223.067 315.810 C 223.541 313.783,224.068 311.950,224.240 311.736 C 224.411 311.523,224.853 309.981,225.222 308.310 C 226.023 304.678,226.234 304.807,227.343 309.602 M58.396 307.759 C 58.543 308.666,58.899 309.932,59.185 310.572 C 59.471 311.212,60.068 313.294,60.512 315.199 C 60.955 317.103,61.465 318.849,61.646 319.079 C 61.827 319.308,62.095 320.163,62.242 320.978 C 62.389 321.793,62.605 322.710,62.722 323.015 C 62.900 323.479,62.072 323.569,57.655 323.569 C 52.634 323.569,51.933 323.429,52.716 322.580 C 52.903 322.377,53.460 320.466,53.953 318.332 C 54.446 316.198,54.961 314.365,55.098 314.258 C 55.234 314.151,55.652 312.755,56.026 311.154 C 57.232 305.995,57.943 304.976,58.396 307.759 M176.625 367.691 L 175.364 367.847 175.364 377.910 L 175.364 387.973 178.080 387.973 L 180.795 387.973 180.795 385.311 L 180.795 382.648 183.414 382.383 C 188.785 381.838,191.166 378.428,190.100 372.807 C 189.235 368.244,185.030 366.648,176.625 367.691 M129.454 368.057 C 129.311 368.199,129.195 372.738,129.195 378.144 L 129.195 387.973 136.178 387.973 L 143.162 387.973 143.162 386.111 C 143.162 383.503,142.848 383.317,138.429 383.317 L 134.627 383.317 134.627 375.558 L 134.627 367.798 132.169 367.798 C 130.818 367.798,129.596 367.915,129.454 368.057 M150.136 369.641 C 149.861 370.655,149.513 371.659,149.362 371.872 C 149.211 372.085,148.778 373.569,148.399 375.170 C 148.020 376.770,147.499 378.516,147.241 379.049 C 146.984 379.583,146.441 381.459,146.034 383.219 C 145.628 384.979,145.165 386.420,145.005 386.420 C 144.845 386.421,144.714 386.778,144.714 387.215 C 144.714 387.947,144.916 387.999,147.326 387.894 L 149.939 387.779 150.497 385.354 L 151.056 382.929 154.031 382.929 L 157.006 382.929 157.502 385.160 C 158.099 387.841,158.252 387.959,161.149 387.967 L 163.423 387.973 163.151 386.518 C 163.002 385.718,162.744 384.888,162.579 384.675 C 162.414 384.462,161.966 382.978,161.585 381.377 C 161.203 379.777,160.770 378.380,160.622 378.274 C 160.475 378.167,159.950 376.431,159.455 374.416 C 158.961 372.401,158.324 370.305,158.039 369.760 C 157.755 369.215,157.521 368.550,157.519 368.283 C 157.518 367.932,156.569 367.798,154.076 367.798 L 150.634 367.798 150.136 369.641 M194.374 377.886 L 194.374 387.973 201.164 387.973 L 207.953 387.973 207.953 385.881 C 207.953 383.335,207.920 383.317,203.072 383.317 L 199.418 383.317 199.418 375.558 L 199.418 367.798 196.896 367.798 L 194.374 367.798 194.374 377.886 M215.470 368.327 C 215.230 368.601,214.647 370.471,214.176 372.481 C 213.704 374.491,213.188 376.224,213.030 376.332 C 212.873 376.439,212.432 377.837,212.051 379.437 C 211.671 381.038,211.229 382.522,211.070 382.735 C 210.732 383.190,209.893 386.491,209.893 387.369 C 209.893 388.602,214.479 388.193,214.795 386.932 C 214.939 386.359,215.291 385.443,215.576 384.895 C 215.862 384.347,216.097 383.681,216.098 383.414 C 216.100 383.068,216.967 382.929,219.133 382.929 L 222.166 382.929 222.667 385.451 L 223.169 387.973 225.648 387.973 C 227.113 387.973,228.128 387.807,228.128 387.568 C 228.128 386.831,226.857 381.967,226.561 381.571 C 226.401 381.358,225.878 379.612,225.399 377.692 C 224.919 375.771,224.401 374.025,224.247 373.812 C 224.092 373.598,223.662 372.158,223.290 370.611 L 222.613 367.798 219.260 367.813 C 217.028 367.823,215.761 367.995,215.470 368.327 M228.128 369.932 L 228.128 372.066 231.038 372.066 L 233.948 372.066 233.948 380.019 L 233.948 387.973 236.469 387.973 L 238.991 387.973 238.991 380.019 L 238.991 372.066 241.901 372.066 L 244.811 372.066 244.811 369.932 L 244.811 367.798 236.469 367.798 L 228.128 367.798 228.128 369.932 M249.890 369.253 C 249.680 370.053,249.299 371.581,249.043 372.648 C 248.788 373.715,248.444 374.762,248.280 374.976 C 248.115 375.189,247.611 376.848,247.160 378.661 C 246.708 380.475,246.178 382.308,245.981 382.735 C 245.501 383.776,244.816 386.451,244.813 387.294 C 244.811 387.865,245.179 387.973,247.124 387.973 L 249.437 387.973 249.856 386.324 C 250.693 383.028,250.814 382.929,253.994 382.929 C 256.551 382.929,256.838 383.005,256.838 383.682 C 256.838 384.096,256.997 384.534,257.192 384.654 C 257.387 384.775,257.664 385.571,257.808 386.423 L 258.070 387.973 260.558 387.973 C 262.028 387.973,263.046 387.807,263.046 387.568 C 263.046 386.762,261.747 381.954,261.479 381.765 C 261.327 381.659,261.081 380.960,260.931 380.213 C 260.782 379.467,260.073 376.935,259.356 374.588 C 258.639 372.241,257.940 369.753,257.802 369.059 L 257.552 367.798 253.912 367.798 L 250.272 367.798 249.890 369.253 M184.056 372.120 C 187.035 373.477,185.387 378.274,181.941 378.274 L 180.795 378.274 180.795 374.976 L 180.795 371.678 181.941 371.678 C 182.571 371.678,183.523 371.877,184.056 372.120 M154.800 375.398 C 155.030 376.446,155.310 377.609,155.423 377.983 C 155.597 378.554,155.372 378.661,154.010 378.661 C 152.877 378.661,152.444 378.516,152.570 378.177 C 152.669 377.910,152.983 376.507,153.267 375.059 C 153.828 372.206,154.114 372.269,154.800 375.398 M219.614 374.991 C 219.793 375.213,220.105 376.129,220.307 377.028 L 220.674 378.661 218.969 378.661 C 217.095 378.661,216.992 378.497,217.844 376.863 C 218.163 376.252,218.425 375.460,218.426 375.104 C 218.431 373.867,218.962 372.903,219.138 373.812 C 219.221 374.239,219.435 374.769,219.614 374.991 M254.877 376.528 C 255.783 378.601,255.755 378.661,253.916 378.661 C 252.963 378.661,252.182 378.578,252.182 378.476 C 252.182 378.373,252.567 377.118,253.037 375.687 L 253.891 373.084 254.214 374.418 C 254.392 375.151,254.690 376.101,254.877 376.528 " stroke="none" fill="#0caccc" fill-rule="evenodd"></path><path id="path1" d="M197.866 0.262 C 197.546 0.395,197.156 0.696,196.999 0.931 C 196.842 1.166,196.711 26.265,196.708 56.706 L 196.702 112.054 193.307 112.300 C 188.129 112.675,180.431 113.663,179.701 114.046 C 179.343 114.234,177.522 114.686,175.655 115.051 C 173.788 115.416,172.260 115.867,172.260 116.053 C 172.260 117.421,171.026 115.985,170.300 113.773 C 169.827 112.333,169.287 110.958,169.098 110.719 C 168.910 110.480,168.478 109.345,168.138 108.197 C 167.798 107.050,167.390 106.023,167.232 105.917 C 167.073 105.810,166.545 104.500,166.058 103.007 C 165.571 101.513,165.025 100.103,164.845 99.873 C 164.664 99.643,164.147 98.258,163.695 96.795 C 163.243 95.333,162.656 93.775,162.390 93.334 C 162.125 92.892,161.669 91.746,161.377 90.786 C 161.086 89.825,160.735 88.952,160.598 88.846 C 160.460 88.739,159.950 87.430,159.463 85.936 C 158.976 84.442,158.449 83.046,158.293 82.832 C 158.136 82.619,157.703 81.484,157.330 80.310 C 156.958 79.137,156.439 77.827,156.177 77.401 C 155.914 76.974,155.378 75.577,154.984 74.297 C 154.590 73.016,154.152 71.882,154.010 71.775 C 153.868 71.668,153.351 70.359,152.861 68.865 C 152.371 67.371,151.859 66.062,151.724 65.955 C 151.589 65.849,151.060 64.408,150.550 62.755 C 150.039 61.101,149.500 59.748,149.352 59.748 C 149.205 59.748,148.793 58.713,148.439 57.448 C 148.084 56.184,147.668 55.092,147.514 55.023 C 147.361 54.955,146.820 53.589,146.313 51.988 C 145.806 50.388,145.276 48.991,145.136 48.885 C 144.996 48.778,144.457 47.381,143.938 45.781 C 143.419 44.180,142.877 42.784,142.733 42.677 C 142.589 42.570,142.189 41.533,141.845 40.371 C 141.501 39.210,141.083 38.162,140.917 38.043 C 140.751 37.925,140.197 36.474,139.686 34.821 C 139.176 33.167,138.652 31.814,138.523 31.814 C 138.393 31.814,138.048 30.984,137.754 29.971 C 137.460 28.957,136.833 27.255,136.360 26.188 C 135.886 25.121,135.280 23.550,135.012 22.696 C 134.744 21.843,134.397 20.970,134.240 20.757 C 134.083 20.543,133.553 19.149,133.064 17.658 C 131.982 14.361,130.587 12.803,128.716 12.803 C 127.324 12.803,125.703 13.959,125.703 14.952 C 125.703 15.264,125.529 15.519,125.315 15.519 C 125.102 15.519,124.927 15.868,124.927 16.295 C 124.927 16.722,125.066 17.071,125.235 17.071 C 125.404 17.071,125.762 17.900,126.030 18.914 C 126.298 19.927,126.840 21.455,127.235 22.308 C 127.630 23.162,128.258 24.821,128.631 25.994 C 129.004 27.168,129.431 28.215,129.580 28.322 C 129.729 28.429,130.168 29.564,130.555 30.844 C 130.942 32.124,131.491 33.608,131.775 34.142 C 132.281 35.091,133.474 38.226,135.098 42.871 C 135.546 44.151,136.034 45.286,136.182 45.393 C 136.330 45.500,136.850 46.809,137.336 48.303 C 137.823 49.796,138.356 51.193,138.520 51.406 C 138.684 51.620,139.252 53.016,139.782 54.510 C 141.990 60.729,142.583 62.280,142.824 62.464 C 142.963 62.570,143.347 63.567,143.676 64.679 C 144.006 65.791,144.541 67.275,144.867 67.977 C 145.472 69.283,146.847 72.869,148.332 77.013 C 148.791 78.293,149.273 79.428,149.404 79.534 C 149.535 79.641,150.043 80.951,150.533 82.444 C 151.024 83.938,151.538 85.247,151.677 85.354 C 151.815 85.461,152.256 86.648,152.656 87.991 C 153.056 89.335,153.523 90.521,153.694 90.627 C 153.864 90.732,154.364 91.983,154.803 93.406 C 155.243 94.829,155.730 96.087,155.887 96.202 C 156.043 96.317,156.583 97.721,157.088 99.321 C 157.592 100.921,158.115 102.318,158.250 102.425 C 158.483 102.609,159.044 104.077,161.287 110.378 C 161.819 111.872,162.377 113.181,162.528 113.288 C 162.679 113.395,163.160 114.617,163.598 116.004 L 164.394 118.526 163.186 119.079 C 162.522 119.383,160.727 120.212,159.196 120.922 C 157.666 121.631,156.240 122.211,156.028 122.211 C 155.815 122.211,155.584 122.353,155.512 122.527 C 155.389 122.829,152.347 124.595,149.273 126.150 C 148.472 126.554,147.818 127.056,147.818 127.264 C 147.818 127.473,147.599 127.648,147.333 127.653 C 146.910 127.662,143.260 130.189,141.623 131.606 C 141.310 131.877,140.501 132.473,139.826 132.932 L 138.597 133.766 129.062 124.206 C 123.818 118.948,118.754 113.860,117.807 112.900 C 116.861 111.940,115.588 110.689,114.979 110.121 C 114.369 109.553,102.277 97.463,88.107 83.254 C 62.830 57.907,62.315 57.420,60.834 57.420 C 57.946 57.420,56.426 60.443,58.101 62.856 C 58.474 63.391,75.576 80.624,96.107 101.151 L 133.436 138.472 131.994 139.987 C 129.942 142.143,126.438 146.046,125.413 147.318 C 122.929 150.398,122.247 151.279,120.930 153.107 C 120.141 154.203,119.496 155.267,119.496 155.472 C 119.496 155.677,119.146 156.161,118.720 156.547 C 118.293 156.933,117.938 157.440,117.931 157.674 C 117.881 159.422,114.168 159.573,112.900 157.880 C 112.793 157.737,111.571 157.213,110.184 156.714 C 108.797 156.216,107.610 155.685,107.545 155.534 C 107.480 155.383,106.302 154.862,104.926 154.377 C 103.550 153.891,102.425 153.351,102.425 153.178 C 102.425 153.004,102.173 152.861,101.866 152.861 C 101.558 152.861,99.850 152.176,98.070 151.338 C 96.290 150.500,94.360 149.696,93.780 149.550 C 93.200 149.405,92.726 149.164,92.726 149.016 C 92.726 148.868,91.809 148.426,90.689 148.035 C 89.568 147.643,88.128 147.019,87.488 146.647 C 86.848 146.276,85.630 145.750,84.783 145.478 C 83.935 145.207,83.006 144.749,82.718 144.461 C 82.430 144.173,81.935 143.938,81.617 143.938 C 81.298 143.938,80.132 143.515,79.025 142.998 C 73.623 140.476,68.997 138.506,68.475 138.506 C 68.156 138.506,67.895 138.353,67.895 138.166 C 67.895 137.978,66.804 137.422,65.470 136.929 C 64.137 136.437,62.958 135.915,62.852 135.770 C 62.745 135.626,62.221 135.373,61.688 135.209 C 60.778 134.929,59.627 134.421,53.355 131.527 C 51.973 130.890,50.140 130.149,49.281 129.881 C 48.423 129.613,47.721 129.271,47.721 129.120 C 47.721 128.970,46.760 128.544,45.587 128.174 C 44.413 127.804,43.453 127.373,43.453 127.216 C 43.453 127.059,42.318 126.553,40.931 126.091 C 39.544 125.630,38.409 125.119,38.409 124.957 C 38.409 124.795,37.667 124.440,36.760 124.168 C 35.194 123.699,30.879 121.795,27.934 120.273 C 27.187 119.887,25.834 119.352,24.927 119.084 C 24.020 118.816,23.278 118.467,23.278 118.308 C 23.278 117.368,18.875 116.850,17.813 117.665 C 15.447 119.482,15.939 122.759,18.764 124.005 C 19.647 124.394,20.456 124.824,20.563 124.961 C 20.669 125.098,21.193 125.343,21.726 125.504 C 22.260 125.666,23.966 126.388,25.518 127.109 C 27.069 127.829,28.468 128.419,28.625 128.419 C 28.782 128.419,29.694 128.836,30.653 129.345 C 31.611 129.855,33.138 130.494,34.045 130.765 C 34.952 131.036,35.694 131.390,35.694 131.553 C 35.694 131.715,36.828 132.225,38.215 132.687 C 39.602 133.148,40.737 133.667,40.737 133.840 C 40.737 134.013,41.217 134.272,41.804 134.416 C 42.391 134.559,43.963 135.189,45.297 135.816 C 46.631 136.442,47.832 136.954,47.965 136.954 C 48.098 136.954,49.211 137.465,50.439 138.089 C 51.667 138.713,53.391 139.439,54.270 139.702 C 55.149 139.966,55.868 140.319,55.868 140.488 C 55.868 140.656,56.828 141.097,58.002 141.467 C 59.176 141.837,60.136 142.268,60.136 142.426 C 60.136 142.583,61.049 143.015,62.165 143.386 C 63.281 143.756,65.008 144.469,66.004 144.969 C 66.999 145.469,67.916 145.878,68.040 145.878 C 68.164 145.878,69.571 146.489,71.167 147.236 C 72.762 147.983,74.322 148.594,74.635 148.594 C 74.947 148.594,75.260 148.766,75.331 148.977 C 75.403 149.188,76.508 149.729,77.789 150.179 C 79.069 150.628,80.204 151.133,80.310 151.301 C 80.417 151.469,81.365 151.897,82.416 152.253 C 83.468 152.608,84.777 153.138,85.326 153.429 C 87.201 154.426,92.141 156.635,93.695 157.171 C 94.549 157.466,95.346 157.840,95.466 158.003 C 95.587 158.167,96.575 158.613,97.663 158.997 C 98.751 159.380,99.874 159.885,100.160 160.120 C 100.445 160.355,101.596 160.845,102.716 161.210 C 103.836 161.575,104.753 161.989,104.753 162.129 C 104.753 162.270,105.975 162.801,107.468 163.309 C 108.962 163.818,110.184 164.353,110.184 164.500 C 110.184 164.646,110.883 164.975,111.736 165.231 C 113.497 165.758,113.601 166.117,112.513 167.901 C 112.088 168.598,111.374 170.256,110.927 171.587 C 110.480 172.917,109.972 174.180,109.798 174.394 C 109.624 174.607,109.190 175.829,108.833 177.110 C 108.476 178.390,107.949 179.961,107.661 180.601 C 107.374 181.242,106.828 183.424,106.447 185.451 C 106.066 187.478,105.638 189.224,105.495 189.331 C 105.284 189.489,104.365 195.216,104.365 196.376 C 104.365 196.555,81.320 196.702,53.155 196.702 L 1.946 196.702 0.973 197.548 C -0.922 199.196,-0.327 202.648,1.965 203.305 C 3.440 203.728,104.174 203.856,108.155 203.440 L 110.508 203.194 110.749 200.821 C 111.260 195.768,111.869 191.456,112.098 191.271 C 112.229 191.164,112.659 189.418,113.054 187.391 C 113.450 185.364,114.078 183.007,114.452 182.153 C 114.825 181.300,115.360 179.685,115.641 178.565 C 115.921 177.444,116.265 176.528,116.404 176.528 C 116.543 176.528,116.874 175.802,117.140 174.916 C 117.772 172.805,121.772 164.669,123.077 162.840 C 123.348 162.460,123.919 161.572,124.345 160.866 C 125.764 158.521,127.340 156.229,128.078 155.437 C 128.479 155.007,128.807 154.539,128.807 154.397 C 128.807 154.255,129.200 153.690,129.680 153.142 C 130.160 152.594,131.077 151.505,131.717 150.722 C 133.178 148.937,140.326 141.807,142.214 140.252 C 142.991 139.612,143.918 138.824,144.273 138.501 C 144.628 138.178,145.527 137.484,146.271 136.960 C 147.015 136.435,147.962 135.695,148.376 135.316 C 148.789 134.937,149.348 134.627,149.617 134.627 C 149.887 134.627,150.247 134.395,150.417 134.112 C 150.588 133.828,151.513 133.174,152.473 132.657 C 153.434 132.140,154.306 131.612,154.413 131.483 C 154.520 131.355,156.178 130.439,158.099 129.448 C 160.019 128.457,161.777 127.493,162.006 127.307 C 162.234 127.120,163.543 126.574,164.915 126.092 C 166.288 125.611,167.610 125.059,167.854 124.865 C 168.098 124.671,169.578 124.158,171.143 123.724 C 172.708 123.291,174.170 122.785,174.391 122.602 C 174.612 122.418,176.362 121.952,178.279 121.566 C 180.197 121.180,181.853 120.747,181.960 120.604 C 183.330 118.772,216.769 118.791,218.040 120.625 C 218.147 120.779,219.806 121.224,221.726 121.614 C 223.647 122.004,225.393 122.454,225.606 122.615 C 225.820 122.775,227.304 123.292,228.904 123.763 C 230.504 124.235,231.988 124.756,232.202 124.921 C 232.415 125.086,233.725 125.629,235.112 126.127 C 236.499 126.625,237.808 127.171,238.021 127.339 C 238.235 127.508,239.981 128.457,241.901 129.448 C 243.822 130.439,245.480 131.375,245.587 131.528 C 245.694 131.681,246.479 132.184,247.333 132.645 C 248.186 133.106,249.845 134.189,251.018 135.052 C 252.192 135.914,253.580 136.913,254.103 137.271 C 254.627 137.629,255.438 138.272,255.906 138.699 C 256.374 139.127,257.764 140.349,258.995 141.416 C 262.789 144.706,268.865 151.029,268.865 151.687 C 268.865 151.875,269.302 152.372,269.835 152.792 C 270.369 153.212,270.805 153.686,270.805 153.847 C 270.805 154.008,271.416 154.885,272.163 155.796 C 272.910 156.708,273.521 157.610,273.521 157.800 C 273.521 157.991,273.851 158.501,274.256 158.935 C 274.660 159.369,275.292 160.318,275.660 161.045 C 276.029 161.772,276.554 162.629,276.827 162.949 C 277.705 163.977,281.933 172.464,282.645 174.628 C 283.024 175.779,283.451 176.809,283.593 176.916 C 283.734 177.022,284.161 178.157,284.541 179.437 C 284.921 180.718,285.456 182.289,285.729 182.929 C 286.002 183.569,286.534 185.752,286.911 187.779 C 287.288 189.806,287.731 191.639,287.897 191.853 C 288.176 192.213,288.914 197.988,289.137 201.552 L 289.234 203.104 291.562 203.397 C 296.828 204.059,398.367 203.545,399.059 202.853 C 400.203 201.709,400.239 198.940,399.126 197.739 L 398.165 196.702 346.931 196.702 L 295.697 196.702 295.496 195.635 C 295.386 195.048,295.180 193.521,295.038 192.241 C 294.896 190.960,294.659 189.825,294.510 189.719 C 294.361 189.612,293.927 187.842,293.546 185.786 C 293.166 183.730,292.639 181.634,292.377 181.129 C 292.115 180.623,291.572 178.944,291.171 177.399 C 290.770 175.853,290.324 174.588,290.179 174.588 C 289.888 174.588,288.844 171.137,289.083 170.966 C 289.166 170.907,290.630 170.437,292.338 169.923 C 294.045 169.408,295.529 168.879,295.635 168.746 C 295.742 168.613,297.139 168.057,298.739 167.511 C 305.295 165.275,306.702 164.759,306.887 164.526 C 306.993 164.391,308.477 163.856,310.184 163.337 C 311.891 162.817,313.375 162.290,313.482 162.165 C 313.589 162.040,314.811 161.559,316.198 161.097 C 321.168 159.440,324.546 158.211,324.927 157.920 C 325.141 157.758,326.625 157.233,328.225 156.755 C 329.825 156.277,331.222 155.762,331.329 155.610 C 331.435 155.459,332.570 155.016,333.851 154.627 C 335.131 154.237,336.353 153.786,336.566 153.624 C 336.780 153.463,338.163 152.959,339.640 152.506 C 341.117 152.052,342.514 151.533,342.744 151.351 C 342.974 151.169,344.515 150.624,346.169 150.138 C 347.823 149.653,349.176 149.144,349.176 149.006 C 349.176 148.868,350.398 148.421,351.891 148.012 C 353.385 147.602,354.607 147.155,354.607 147.017 C 354.607 146.879,355.960 146.367,357.614 145.879 C 359.268 145.391,360.708 144.865,360.815 144.710 C 360.921 144.556,362.056 144.127,363.337 143.758 C 364.617 143.390,366.363 142.774,367.216 142.389 C 368.070 142.004,369.554 141.462,370.514 141.184 C 371.474 140.906,372.347 140.571,372.454 140.441 C 372.561 140.310,373.695 139.889,374.976 139.504 C 376.256 139.119,378.002 138.489,378.855 138.104 C 379.709 137.719,381.307 137.130,382.406 136.796 C 386.381 135.586,387.764 134.610,387.903 132.914 C 388.067 130.915,387.704 129.583,386.996 129.583 C 386.680 129.583,386.421 129.408,386.421 129.195 C 386.421 128.719,383.228 128.676,382.716 129.145 C 382.513 129.330,381.038 129.872,379.437 130.348 C 377.837 130.825,376.440 131.336,376.334 131.484 C 376.227 131.633,375.005 132.078,373.618 132.474 C 372.231 132.870,370.733 133.413,370.290 133.681 C 369.847 133.949,368.558 134.444,367.427 134.780 C 366.296 135.115,365.175 135.543,364.936 135.731 C 364.696 135.918,363.191 136.462,361.591 136.940 C 359.990 137.419,358.594 137.931,358.487 138.080 C 358.380 138.228,357.158 138.674,355.771 139.070 C 354.384 139.466,352.900 140.000,352.473 140.257 C 352.047 140.513,350.650 141.027,349.370 141.398 C 348.089 141.768,346.854 142.226,346.624 142.415 C 346.394 142.603,344.997 143.129,343.520 143.583 C 342.043 144.036,340.660 144.539,340.446 144.701 C 340.233 144.863,339.011 145.310,337.730 145.694 C 336.450 146.079,335.228 146.523,335.015 146.682 C 334.801 146.841,333.404 147.364,331.911 147.843 C 330.417 148.322,328.846 148.932,328.419 149.198 C 327.992 149.464,327.032 149.809,326.285 149.964 C 325.538 150.120,324.054 150.632,322.987 151.102 C 321.920 151.571,320.262 152.196,319.302 152.489 C 318.341 152.783,317.468 153.120,317.362 153.239 C 317.255 153.358,315.858 153.866,314.258 154.368 C 312.658 154.869,311.174 155.413,310.960 155.575 C 310.747 155.737,309.263 156.273,307.662 156.767 C 306.062 157.260,304.665 157.770,304.559 157.900 C 304.452 158.030,303.274 158.461,301.940 158.858 C 300.606 159.255,299.515 159.685,299.515 159.814 C 299.515 159.943,298.337 160.375,296.896 160.774 C 295.456 161.173,293.908 161.727,293.456 162.005 C 293.004 162.284,291.301 162.899,289.673 163.372 C 288.044 163.845,286.712 164.380,286.712 164.560 C 286.712 165.495,285.831 164.654,284.922 162.852 C 284.357 161.731,283.786 160.727,283.654 160.621 C 283.522 160.514,283.018 159.617,282.535 158.626 C 282.052 157.636,281.397 156.611,281.080 156.348 C 280.764 156.085,280.504 155.697,280.504 155.485 C 280.504 155.273,279.859 154.203,279.070 153.107 C 277.753 151.279,277.071 150.398,274.587 147.318 C 273.309 145.732,269.670 141.711,267.975 140.011 L 266.503 138.534 304.323 100.688 C 325.124 79.872,342.258 62.479,342.398 62.037 C 343.183 59.565,341.575 57.432,338.905 57.404 C 337.344 57.387,337.302 57.428,305.606 89.314 C 288.151 106.874,273.471 121.678,272.982 122.211 C 272.494 122.745,271.586 123.635,270.965 124.189 C 270.344 124.743,268.841 126.227,267.626 127.487 C 266.411 128.746,264.490 130.676,263.358 131.774 L 261.300 133.772 260.089 132.938 C 259.423 132.480,257.906 131.365,256.718 130.462 C 255.531 129.558,254.050 128.510,253.429 128.134 C 252.808 127.757,251.793 127.116,251.174 126.708 C 248.354 124.851,247.226 124.186,245.781 123.529 C 244.927 123.141,244.012 122.612,243.747 122.354 C 243.483 122.097,242.653 121.684,241.905 121.437 C 240.254 120.892,240.234 121.335,242.095 117.362 C 242.949 115.540,243.647 113.878,243.647 113.669 C 243.647 113.459,243.787 113.288,243.958 113.288 C 244.130 113.288,244.591 112.371,244.984 111.251 C 245.377 110.131,245.912 108.952,246.172 108.632 C 246.432 108.312,246.965 107.177,247.357 106.111 C 247.748 105.044,248.178 104.083,248.312 103.977 C 248.446 103.870,248.979 102.735,249.496 101.455 C 250.013 100.175,250.567 99.069,250.727 98.998 C 250.887 98.927,251.018 98.692,251.018 98.476 C 251.018 98.259,251.607 96.834,252.325 95.307 C 253.044 93.781,253.865 91.877,254.149 91.077 C 254.434 90.276,254.784 89.622,254.929 89.622 C 255.073 89.622,255.597 88.531,256.093 87.197 C 256.589 85.863,257.221 84.541,257.498 84.259 C 257.775 83.977,258.002 83.577,258.002 83.370 C 258.002 83.163,258.540 81.823,259.199 80.391 C 259.857 78.960,260.751 77.003,261.187 76.043 C 262.327 73.527,264.266 69.372,266.104 65.508 C 266.983 63.662,267.701 61.873,267.701 61.532 C 267.701 61.191,267.864 60.912,268.063 60.912 C 268.262 60.912,268.549 60.519,268.702 60.039 C 269.014 59.054,271.642 53.279,272.719 51.212 C 273.108 50.466,273.636 49.200,273.892 48.400 C 274.148 47.599,274.483 46.945,274.637 46.945 C 274.791 46.945,275.144 46.290,275.421 45.490 C 275.698 44.690,276.504 42.813,277.211 41.319 C 277.918 39.825,279.013 37.468,279.644 36.081 C 280.275 34.694,281.230 32.599,281.766 31.426 C 282.301 30.252,282.859 28.899,283.006 28.419 C 283.153 27.939,283.401 27.546,283.558 27.546 C 283.715 27.546,284.167 26.629,284.563 25.509 C 284.959 24.389,285.518 23.128,285.804 22.707 C 287.878 19.656,282.938 16.153,280.293 18.799 C 279.769 19.323,279.340 20.021,279.340 20.351 C 279.340 20.681,279.166 20.951,278.952 20.951 C 278.739 20.951,278.565 21.115,278.565 21.316 C 278.565 21.516,277.887 23.131,277.059 24.904 C 276.231 26.677,275.433 28.521,275.287 29.001 C 275.140 29.481,274.885 29.874,274.719 29.874 C 274.554 29.874,274.002 31.096,273.493 32.590 C 272.985 34.083,272.455 35.306,272.316 35.306 C 272.177 35.306,271.838 35.873,271.564 36.566 C 271.289 37.260,270.505 39.049,269.822 40.543 C 269.139 42.037,268.141 44.219,267.605 45.393 C 267.069 46.566,266.510 47.919,266.364 48.400 C 266.217 48.880,265.970 49.273,265.816 49.273 C 265.661 49.273,265.208 50.233,264.809 51.406 C 264.410 52.580,263.959 53.540,263.806 53.540 C 263.653 53.540,263.125 54.631,262.632 55.965 C 262.140 57.299,261.629 58.477,261.496 58.584 C 261.364 58.691,261.021 59.389,260.734 60.136 C 260.446 60.883,259.303 63.414,258.192 65.761 C 257.081 68.109,255.937 70.640,255.649 71.387 C 255.361 72.134,254.928 72.946,254.688 73.193 C 254.448 73.439,253.944 74.618,253.569 75.812 C 253.193 77.006,252.728 77.983,252.534 77.983 C 252.341 77.983,252.182 78.150,252.182 78.356 C 252.182 78.561,251.591 80.001,250.869 81.556 C 248.051 87.625,247.227 89.481,246.726 90.883 C 246.441 91.683,246.081 92.338,245.927 92.338 C 245.773 92.338,245.452 92.929,245.213 93.652 C 244.975 94.375,244.176 96.164,243.438 97.629 C 242.701 99.093,242.097 100.597,242.096 100.970 C 242.096 101.343,241.932 101.649,241.733 101.649 C 241.534 101.649,241.251 102.042,241.104 102.522 C 240.957 103.002,240.270 104.617,239.579 106.111 C 238.888 107.604,238.199 109.219,238.049 109.699 C 237.898 110.179,237.645 110.572,237.485 110.572 C 237.325 110.572,236.794 111.707,236.305 113.094 C 235.815 114.481,235.259 115.616,235.069 115.616 C 234.879 115.616,234.724 115.844,234.724 116.124 C 234.724 117.953,231.138 117.912,227.731 116.043 C 227.406 115.865,225.660 115.417,223.851 115.049 C 222.042 114.681,220.213 114.223,219.787 114.032 C 218.811 113.595,210.468 112.514,208.031 112.508 C 207.028 112.506,205.553 112.395,204.753 112.263 L 203.298 112.023 203.292 56.690 C 203.288 24.917,203.138 1.125,202.940 0.811 C 202.572 0.231,198.896 -0.167,197.866 0.262 " stroke="none" fill="#d4ac54" fill-rule="evenodd"></path></g></svg>