<?xml version="1.0" encoding="UTF-8"?>
<!DOCTYPE svg PUBLIC "-//W3C//DTD SVG 1.1//EN" "http://www.w3.org/Graphics/SVG/1.1/DTD/svg11.dtd">
<svg xmlns="http://www.w3.org/2000/svg" version="1.1" width="1090px" height="583px" style="shape-rendering:geometricPrecision; text-rendering:geometricPrecision; image-rendering:optimizeQuality; fill-rule:evenodd; clip-rule:evenodd" xmlns:xlink="http://www.w3.org/1999/xlink">
<g><path style="opacity:0.968" fill="#f0b526" d="M -0.5,553.5 C -0.5,547.167 -0.5,540.833 -0.5,534.5C 0.961599,533.542 2.29493,532.376 3.5,531C 94.1661,530.5 184.833,530.333 275.5,530.5C 279.031,504.205 286.365,479.038 297.5,455C 214.833,418.667 132.167,382.333 49.5,346C 41.7485,341.329 39.2485,334.496 42,325.5C 43.8333,323.667 45.6667,321.833 47.5,320C 53.2531,319.149 58.9198,319.483 64.5,321C 146.383,357.441 228.383,393.608 310.5,429.5C 321.748,411.408 335.081,394.908 350.5,380C 284,313.5 217.5,247 151,180.5C 147.777,163.39 154.61,156.89 171.5,161C 237.833,227.333 304.167,293.667 370.5,360C 371.5,360.667 372.5,360.667 373.5,360C 392.102,345.532 412.102,333.366 433.5,323.5C 399.765,236.461 365.931,149.461 332,62.5C 328.767,45.3996 335.6,38.8996 352.5,43C 356.627,47.014 359.46,51.8473 361,57.5C 393.889,142.945 427.056,228.278 460.5,313.5C 461.167,313.833 461.833,314.167 462.5,314.5C 481.485,309.264 500.818,306.264 520.5,305.5C 520.333,208.833 520.5,112.166 521,15.5C 523.234,9.09893 527.734,6.09893 534.5,6.5C 540.354,5.84309 544.52,8.17642 547,13.5C 547.5,110.833 547.667,208.166 547.5,305.5C 572.908,306.29 597.575,310.957 621.5,319.5C 661.53,234.771 701.03,149.771 740,64.5C 745.252,54.2758 753.085,51.7758 763.5,57C 765.049,58.214 766.215,59.714 767,61.5C 767.667,65.8333 767.667,70.1667 767,74.5C 727.831,159.505 688.664,244.505 649.5,329.5C 659.261,335.889 669.261,342.056 679.5,348C 685.333,352.5 691.167,357 697,361.5C 763.833,294.667 830.667,227.833 897.5,161C 914.517,157.685 921.017,164.518 917,181.5C 850.833,247.667 784.667,313.833 718.5,380C 737.413,399.064 753.413,420.231 766.5,443.5C 851.128,412.235 935.795,381.068 1020.5,350C 1035.86,347.692 1042.02,354.192 1039,369.5C 1037.5,372.333 1035.33,374.5 1032.5,376C 947.274,407.018 862.274,438.518 777.5,470.5C 785.325,489.8 790.325,509.8 792.5,530.5C 883.915,530.005 975.248,530.505 1066.5,532C 1068.38,533.543 1069.88,535.376 1071,537.5C 1071.67,541.833 1071.67,546.167 1071,550.5C 1069.41,553.756 1066.91,555.923 1063.5,557C 965.833,557.667 868.167,557.667 770.5,557C 769.667,556.167 768.833,555.333 768,554.5C 760.269,469.55 720.103,405.383 647.5,362C 568.221,320.164 489.888,321.83 412.5,367C 344.738,411.296 307.238,474.129 300,555.5C 299.5,556 299,556.5 298.5,557C 200.5,557.667 102.5,557.667 4.5,557C 2.67694,556.003 1.01027,554.836 -0.5,553.5 Z"/></g>
</svg>
